HIERARCHY
ROOT pelvis
{
  OFFSET 0 100 0
  CHANNELS 6 Xposition Yposition Zposition Zrotation Xrotation Yrotation
  JOINT pelvis_right_femur
  {
    OFFSET -10.78128 -3.44521 -0.5502486
    CHANNELS 3 Zrotation Xrotation Yrotation
    JOINT right_femur_tibia
    {
      OFFSET -0.8047443 -44.0398 -0.1307829
      CHANNELS 3 Zrotation Xrotation Yrotation
      JOINT right_tibia_foot
      {
        OFFSET 3.006224 -47.83518 -5
        CHANNELS 3 Zrotation Xrotation Yrotation
        End Site
        {
          OFFSET 0 -5 15
        }
      }
    }
  }
  JOINT pelvis_left_femur
  {
    OFFSET 10.78128 -3.44521 -0.5502486
    CHANNELS 3 Zrotation Xrotation Yrotation
    JOINT left_femur_tibia
    {
      OFFSET 0.8047443 -44.0398 -0.1307829
      CHANNELS 3 Zrotation Xrotation Yrotation
      JOINT left_tibia_foot
      {
        OFFSET -4.370144 -48.10324 -4.275266
        CHANNELS 3 Zrotation Xrotation Yrotation
        End Site
        {
          OFFSET 0 -5 15
        }
      }
    }
  }
  JOINT pelvis_spine1
  {
    OFFSET 0 6.468898 -3.129235
    CHANNELS 3 Zrotation Xrotation Yrotation
    JOINT spine1
    {
      OFFSET 0 23.15396 4.99043
      CHANNELS 3 Zrotation Xrotation Yrotation
      JOINT spine2
      {
        OFFSET 0 20.79997 -5.064912
        CHANNELS 3 Zrotation Xrotation Yrotation
        JOINT neck
        {
          OFFSET 0 14.38658 9.616178
          CHANNELS 3 Zrotation Xrotation Yrotation
          End Site
          {
            OFFSET 0 20 0
          }
        }
      }
      JOINT right_manubrium
      {
        OFFSET -5.722621 16.35077 3.967754
        CHANNELS 3 Zrotation Xrotation Yrotation
        JOINT right_clavicle
        {
          OFFSET -13.16364 1.694482 -4.693211
          CHANNELS 3 Zrotation Xrotation Yrotation
          JOINT right_humerus
          {
            OFFSET -28.5034 -0.3100689 -2.792744
            CHANNELS 3 Zrotation Xrotation Yrotation
            JOINT right_radius
            {
              OFFSET -25.15693 0.02248979 -1.271978
              CHANNELS 3 Zrotation Xrotation Yrotation
              End Site
              {
                OFFSET -15 0 0
              }
            }
          }
        }
      }
      JOINT left_manubrium
      {
        OFFSET 5.722621 16.35077 3.967754
        CHANNELS 3 Zrotation Xrotation Yrotation
        JOINT left_clavicle
        {
          OFFSET 13.16364 1.694482 -4.693211
          CHANNELS 3 Zrotation Xrotation Yrotation
          JOINT left_humerus
          {
            OFFSET 29.39168 -1.063119 -2.237045
            CHANNELS 3 Zrotation Xrotation Yrotation
            JOINT left_radius
            {
              OFFSET 24.59957 -0.9528479 0.9047498
              CHANNELS 3 Zrotation Xrotation Yrotation
              End Site
              {
                OFFSET 15 -0 -0
              }
            }
          }
        }
      }
    }
  }
}
MOTION
Frames: 9
Frame Time: 0.0416666666667
-245.3253 102.5014 2615.462 -2.786825 -5.161176 -19.76445 6.854316 10.48437 0.194375 -0 8.479704 -0 -11.3776 -12.55944 -0.6341938 4.769433 -23.32633 -1.283344 -0 23.21096 -0 1.83177 -2.193028 15.35311 -2.051844 0.2798106 9.947044 -1.794029 7.931997 -2.27728 1.075196 21.25855 9.108715 4.076762 -19.33413 8.709313 3.384004 -22.87779 11.63994 72.6881 34.03063 1.352995 -0 0 25.55491 -36.01889 19.34757 19.67412 4.495202 -16.49542 0.2468177 -94.06637 23.71267 30.00582 0 0 -12.38379 -2.157225 10.44677 19.13535
-246.5162 101.1805 2620.781 -3.160128 -4.571555 -20.24214 6.846497 12.02381 0.3042319 -0 10.39844 -0 -10.58196 -14.81937 -0.6439714 5.349785 -23.28131 -0.9404594 -0 14.5561 -0 2.027245 -1.600801 15.50307 -2.091825 0.1814355 10.36198 -1.982721 7.493645 -1.874393 1.11106 21.10693 9.352401 4.096406 -19.3509 8.996464 3.141429 -23.4835 11.5669 71.37908 33.42209 3.176897 -0 0 27.08354 -37.24719 19.55777 20.4375 4.653149 -16.03109 0.6677764 -94.58465 23.54884 31.08074 0 0 -11.86343 -2.331474 10.48121 19.3645
-247.6794 99.84853 2626.546 -3.261827 -4.369894 -20.78722 6.025086 14.11362 0.1780649 -0 12.89553 -0 -10.06941 -15.94157 -0.3100952 4.649109 -22.74874 -2.067961 -0 9.74318 -0 1.231454 -1.46854 15.93416 -2.1285 0.1299141 10.60299 -2.094051 7.257296 -1.615689 1.144646 21.03521 9.52309 4.066047 -19.32365 9.240708 3.004221 -23.83452 11.54032 70.68151 32.90046 4.201656 -0 0 28.027 -38.15188 19.76852 20.96174 4.681541 -15.6636 0.8448062 -94.93545 23.39624 31.79743 0 0 -11.41114 -2.537897 10.46089 19.58268
-248.8621 98.7125 2632.728 -3.048892 -4.769016 -21.36873 4.415107 17.0177 -0.2022137 -0 16.32947 -0 -10.12202 -15.2272 0.3754867 2.795289 -21.94996 -4.584256 -0 8.488766 -0 -0.2585719 -2.044392 16.90683 -2.15644 0.128345 10.66573 -2.140937 7.2531 -1.507485 1.176783 21.05172 9.612004 3.989859 -19.23527 9.430243 2.985511 -23.90896 11.56256 70.62174 32.53073 4.38077 -0 0 28.33277 -38.68925 19.99127 21.20703 4.584483 -15.42574 0.765845 -95.09759 23.26628 32.11612 0 0 -11.05245 -2.752952 10.39018 19.77336
-250.103 97.99094 2639.242 -2.583262 -5.739553 -21.87169 2.305971 20.24405 -0.6737222 -0 21.25674 -0 -10.81636 -12.13842 1.335457 0.2158074 -20.688 -7.905031 -0 9.859764 -0 -1.812123 -3.24657 18.29315 -2.173 0.1698092 10.55456 -2.132615 7.474435 -1.550457 1.207491 21.14827 9.619531 3.875693 -19.08195 9.55933 3.077379 -23.71219 11.62488 71.1706 32.3424 3.743036 -0 0 28.01212 -38.85183 20.23164 21.16746 4.388002 -15.33942 0.4498262 -95.04948 23.16627 32.00855 0 0 -10.83275 -2.947631 10.27847 19.91053
-251.4205 97.87749 2645.951 -2.016384 -7.076202 -22.14265 0.1391489 22.76606 -1.084191 -0 28.0398 -0 -12.08722 -6.696372 2.482862 -2.478474 -18.62259 -11.18815 -0 12.65591 -0 -2.80121 -4.741082 19.73811 -2.178337 0.240463 10.27925 -2.072429 7.885703 -1.741656 1.235967 21.30472 9.552997 3.733024 -18.87268 9.627622 3.255903 -23.27034 11.7108 72.26432 32.33093 2.367982 -0 0 27.12319 -38.66111 20.48846 20.86469 4.13085 -15.41525 -0.0624945 -94.77208 23.09877 31.45858 0 0 -10.8077 -3.092854 10.13832 19.96481
-252.8004 98.47028 2652.667 -1.560267 -8.515187 -22.07336 -1.608148 23.50586 -1.433834 -0 36.4495 -0 -13.79473 0.2517095 3.729641 -4.684271 -15.5748 -13.70638 -0 15.66761 -0 -2.936372 -6.154525 20.89305 -2.175251 0.3229336 9.853631 -1.958337 8.431685 -2.074879 1.260405 21.49395 9.424341 3.571727 -18.62655 9.638421 3.488008 -22.62433 11.80038 73.81634 32.46589 0.3694161 -0 0 25.75633 -38.15797 20.75287 20.34006 3.856536 -15.65296 -0.7169762 -94.25364 23.06032 30.4653 0 0 -11.0319 -3.163729 9.982319 19.90883
-254.1899 99.71008 2659.168 -1.426402 -9.846116 -21.66406 -2.582094 21.83845 -1.82385 -0 45.47639 -0 -15.71575 7.180382 4.930945 -6.025798 -11.65722 -15.16896 -0 17.92187 -0 -2.402155 -7.30039 21.55232 -2.168803 0.3994282 9.296405 -1.785311 9.045942 -2.53943 1.277836 21.68594 9.24827 3.401792 -18.36936 9.59658 3.737963 -21.82588 11.87425 75.71991 32.70108 -2.111287 -0 0 24.02477 -37.39412 21.00756 19.64761 3.607571 -16.0414 -1.452163 -93.49559 23.04051 29.04898 0 0 -11.54738 -3.142727 9.81971 19.72209
-255.5099 101.376 2665.252 -1.727701 -10.95812 -21.02356 -2.714303 17.85815 -2.300385 -0 53.52445 -0 -17.49679 12.48074 5.837825 -6.448907 -7.21443 -15.76809 -0 18.89652 -0 -1.720346 -8.264299 21.67359 -2.165441 0.4547586 8.632791 -1.54883 9.6589 -3.117916 1.284241 21.85156 9.040958 3.233623 -18.12999 9.506842 3.973184 -20.93399 11.91706 77.84754 32.98485 -4.908208 -0 0 22.05758 -36.42582 21.22671 18.84814 3.420716 -16.55836 -2.204333 -92.51922 23.02282 27.25888 0 0 -12.37169 -3.022307 9.653987 19.39567
